<?xml version="1.0" encoding="utf-8"?>
<!-- Generator: Adobe Illustrator 15.0.0, SVG Export Plug-In . SVG Version: 6.00 Build 0)  -->
<!DOCTYPE svg PUBLIC "-//W3C//DTD SVG 1.1//EN" "http://www.w3.org/Graphics/SVG/1.1/DTD/svg11.dtd">
<svg version="1.1" id="Capa_1" xmlns="http://www.w3.org/2000/svg" xmlns:xlink="http://www.w3.org/1999/xlink" x="0px" y="0px"
	 width="180px" height="80px" viewBox="0 0 180 80" enable-background="new 0 0 180 80" xml:space="preserve">
<path fill="#333333" d="M91.726,49.09l-2.179-4.838c2.077-1.524,3.861-3.422,5.255-5.586l4.962,1.879
	c0.948,0.36,2.008-0.118,2.367-1.066l1.824-4.813c0.172-0.455,0.156-0.96-0.043-1.405c-0.201-0.444-0.568-0.791-1.024-0.963
	l-4.962-1.88c0.392-2.545,0.313-5.147-0.233-7.666l4.837-2.179c0.444-0.2,0.791-0.568,0.963-1.024
	c0.174-0.456,0.158-0.961-0.043-1.405l-2.113-4.693c-0.416-0.925-1.504-1.336-2.429-0.92l-4.837,2.179
	c-1.525-2.077-3.422-3.861-5.587-5.255l1.88-4.961c0.359-0.949-0.118-2.009-1.067-2.368l-4.813-1.824
	c-0.455-0.172-0.96-0.157-1.405,0.043s-0.791,0.568-0.963,1.024l-1.879,4.961c-2.548-0.393-5.155-0.312-7.667,0.234l-2.179-4.837
	c-0.2-0.444-0.568-0.791-1.024-0.963c-0.455-0.172-0.961-0.157-1.405,0.043L63.269,2.92c-0.925,0.417-1.337,1.504-0.92,2.429
	l2.179,4.837c-2.077,1.525-3.861,3.422-5.255,5.587l-4.961-1.88c-0.455-0.172-0.96-0.157-1.405,0.043s-0.791,0.568-0.963,1.024
	l-1.823,4.813c-0.359,0.949,0.118,2.009,1.067,2.368l4.961,1.88c-0.391,2.545-0.312,5.148,0.234,7.667l-4.837,2.179
	c-0.444,0.2-0.791,0.568-0.963,1.024c-0.172,0.456-0.157,0.961,0.043,1.405l2.114,4.692c0.2,0.445,0.568,0.791,1.024,0.964
	c0.456,0.173,0.961,0.157,1.405-0.043l4.837-2.179c1.525,2.078,3.421,3.862,5.586,5.255l-1.88,4.962
	c-0.359,0.947,0.118,2.008,1.067,2.367l4.813,1.824c0.209,0.079,0.431,0.119,0.65,0.119c0.257,0,0.515-0.055,0.754-0.162
	c0.444-0.201,0.791-0.568,0.963-1.024l1.879-4.961c2.548,0.393,5.155,0.312,7.667-0.233l2.179,4.836
	c0.2,0.445,0.568,0.791,1.024,0.964c0.455,0.173,0.961,0.157,1.405-0.044l4.692-2.113C91.73,51.102,92.143,50.014,91.726,49.09z
	 M88.682,31.631c-1.823,4.812-6.504,8.045-11.647,8.045c-1.504,0-2.988-0.273-4.41-0.812c-3.11-1.178-5.576-3.498-6.942-6.53
	s-1.469-6.416-0.291-9.526c1.823-4.812,6.504-8.045,11.647-8.045c1.504,0,2.988,0.273,4.41,0.812c3.11,1.179,5.576,3.498,6.942,6.53
	C89.757,25.137,89.861,28.521,88.682,31.631z M129.517,56.71c-0.329-0.358-0.788-0.572-1.274-0.593l-3.459-0.148
	c-0.318-1.633-0.895-3.209-1.702-4.664l2.552-2.342c0.747-0.686,0.797-1.848,0.111-2.594l-2.533-2.761
	c-0.33-0.358-0.789-0.572-1.275-0.593c-0.485-0.018-0.961,0.152-1.32,0.481l-2.551,2.341c-1.381-0.93-2.901-1.637-4.501-2.094
	l0.148-3.459c0.044-1.014-0.743-1.87-1.757-1.914l-3.742-0.16c-1.008-0.039-1.87,0.743-1.914,1.756l-0.148,3.459
	c-1.632,0.318-3.208,0.895-4.663,1.702l-2.341-2.552c-0.33-0.358-0.789-0.572-1.275-0.593c-0.486-0.02-0.961,0.153-1.32,0.481
	l-2.76,2.533c-0.748,0.686-0.797,1.848-0.111,2.596l2.342,2.551c-0.93,1.381-1.638,2.901-2.095,4.501l-3.459-0.148
	c-1.009-0.041-1.871,0.743-1.914,1.756l-0.16,3.743c-0.021,0.486,0.152,0.961,0.482,1.32c0.329,0.359,0.788,0.572,1.274,0.594
	l3.459,0.147c0.318,1.633,0.893,3.209,1.701,4.664l-2.551,2.341c-0.359,0.33-0.572,0.789-0.594,1.275
	c-0.021,0.486,0.152,0.961,0.482,1.32l2.533,2.76c0.329,0.359,0.787,0.572,1.274,0.594c0.484,0.02,0.962-0.153,1.32-0.482
	l2.551-2.342c1.381,0.93,2.901,1.638,4.501,2.095l-0.148,3.46c-0.043,1.014,0.743,1.869,1.756,1.913l3.743,0.16
	c0.026,0.001,0.053,0.001,0.079,0.001c0.459,0,0.902-0.172,1.241-0.482c0.358-0.33,0.572-0.788,0.593-1.274l0.148-3.46
	c1.633-0.318,3.209-0.893,4.664-1.701l2.342,2.551c0.329,0.359,0.787,0.572,1.273,0.594c0.489,0.021,0.963-0.152,1.321-0.482
	l2.76-2.533c0.747-0.686,0.798-1.848,0.111-2.594l-2.341-2.551c0.93-1.381,1.637-2.902,2.094-4.502l3.459,0.148
	c1.013,0.039,1.871-0.742,1.914-1.756l0.16-3.742C130.02,57.544,129.846,57.068,129.517,56.71z M108.828,67.569
	c-4.717-0.202-8.391-4.205-8.189-8.923c0.197-4.597,3.953-8.197,8.549-8.197c0.125,0,0.25,0.002,0.375,0.008
	c4.718,0.203,8.392,4.205,8.189,8.924C117.549,64.102,113.586,67.77,108.828,67.569z"/>
</svg>
