<?xml version="1.0" encoding="utf-8"?>
<!-- Generator: Adobe Illustrator 15.0.0, SVG Export Plug-In . SVG Version: 6.00 Build 0)  -->
<!DOCTYPE svg PUBLIC "-//W3C//DTD SVG 1.1//EN" "http://www.w3.org/Graphics/SVG/1.1/DTD/svg11.dtd">
<svg version="1.1" xmlns="http://www.w3.org/2000/svg" xmlns:xlink="http://www.w3.org/1999/xlink" x="0px" y="0px"
	 width="443.621px" height="197.166px" viewBox="0 0 443.621 197.166" enable-background="new 0 0 443.621 197.166"
	 xml:space="preserve">
<g id="Layer_1" display="none">
	<g id="BODY_-_ECO_ROOF" display="inline">
		<g id="LIFTING_DECK_-_ECO_ROOF" display="none">
			<line display="inline" fill="none" stroke="#333333" stroke-width="7" x1="75.172" y1="125.554" x2="75.172" y2="134.683"/>
			<line display="inline" fill="none" stroke="#333333" stroke-width="7" x1="154.991" y1="159.612" x2="154.991" y2="163.036"/>
			<line display="inline" fill="none" stroke="#333333" stroke-width="5" x1="154.991" y1="144.199" x2="154.991" y2="159.612"/>
			<line display="inline" fill="none" stroke="#333333" stroke-width="5" x1="409.588" y1="152.8" x2="409.588" y2="157.089"/>
			<line display="inline" fill="none" stroke="#333333" stroke-width="5" x1="406.588" y1="138.199" x2="406.588" y2="157.069"/>
			<line display="inline" fill="none" stroke="#333333" stroke-width="4" x1="169.921" y1="139.917" x2="169.921" y2="155.33"/>
			<line display="inline" fill="none" stroke="#333333" stroke-width="4" x1="240.921" y1="139.917" x2="240.921" y2="155.33"/>
			<line display="inline" fill="none" stroke="#333333" stroke-width="5" x1="163.588" y1="157.33" x2="246.921" y2="157.33"/>
			<line display="inline" fill="none" stroke="#333333" stroke-width="7" x1="150.921" y1="145.623" x2="414.566" y2="145.623"/>
			<polygon display="inline" fill="#333333" points="153.671,133.621 110.254,129.746 153.671,129.746 			"/>
			<line display="inline" fill="none" stroke="#333333" stroke-width="7" x1="154.991" y1="86.762" x2="414.566" y2="86.762"/>
			<path display="inline" fill="#333333" d="M304.016,148.33c-5.934,0-10.761,4.828-10.761,10.76
				c0,5.935,4.827,10.761,10.761,10.761s10.76-4.826,10.76-10.761C314.775,153.158,309.948,148.33,304.016,148.33z"/>
			<path display="inline" fill="#333333" d="M266.882,148.33c-5.935,0-10.761,4.828-10.761,10.76
				c0,5.935,4.826,10.761,10.761,10.761c5.933,0,10.76-4.826,10.76-10.761C277.642,153.158,272.814,148.33,266.882,148.33z"/>
			<path display="inline" fill="#333333" d="M341.149,148.33c-5.934,0-10.761,4.828-10.761,10.76
				c0,5.935,4.827,10.761,10.761,10.761s10.761-4.826,10.761-10.761C351.909,153.158,347.082,148.33,341.149,148.33z"/>
			<polygon display="inline" fill="#333333" points="307.582,97.614 293.254,121.201 278.928,97.614 			"/>
			<polygon display="inline" fill="#333333" points="278.928,75.909 293.256,52.323 307.582,75.909 			"/>
			<g display="inline">
				<path fill="#333333" d="M139.5,31.473v7c4.92,0,9.909,0.026,15.491,0.058h121.539h131.036v48.47v48.471L274.8,135.47
					l-116.879-0.003v-5.168v-7h-7H82.044H36.055V60.116C65.615,40.063,97.75,38.473,139.5,38.473V31.473 M139.5,31.473
					c-45.141,0-79.007,2.248-110.445,25.002v73.824h52.989h68.877v6.084v6.084L274.8,142.47l139.767,0.002V87.001v-55.47H276.53
					H154.99C149.679,31.5,144.521,31.473,139.5,31.473L139.5,31.473z"/>
			</g>
		</g>
		<g id="FIXED_DOUBLE_DECK_-_ECO_ROOF" display="none">
			<g display="inline">
				<path fill="#333333" d="M139.5,31.473v7c4.92,0,9.909,0.026,15.491,0.058h121.539h131.036v48.47v48.471L274.8,135.47
					l-116.879-0.003v-5.168v-7h-7H82.044H36.055V60.116C65.615,40.063,97.75,38.473,139.5,38.473V31.473 M139.5,31.473
					c-45.141,0-79.007,2.248-110.445,25.002v73.824h52.989h68.877v6.084v6.084L274.8,142.47l139.767,0.002V87.001v-55.47H276.53
					H154.99C149.679,31.5,144.521,31.473,139.5,31.473L139.5,31.473z"/>
			</g>
			<line display="inline" fill="none" stroke="#333333" stroke-width="7" x1="75.172" y1="125.554" x2="75.172" y2="134.683"/>
			<line display="inline" fill="none" stroke="#333333" stroke-width="7" x1="154.991" y1="159.612" x2="154.991" y2="163.036"/>
			<line display="inline" fill="none" stroke="#333333" stroke-width="5" x1="154.991" y1="144.199" x2="154.991" y2="159.612"/>
			<line display="inline" fill="none" stroke="#333333" stroke-width="5" x1="409.588" y1="152.8" x2="409.588" y2="157.089"/>
			<line display="inline" fill="none" stroke="#333333" stroke-width="5" x1="406.588" y1="138.199" x2="406.588" y2="157.069"/>
			<line display="inline" fill="none" stroke="#333333" stroke-width="4" x1="169.921" y1="139.917" x2="169.921" y2="155.33"/>
			<line display="inline" fill="none" stroke="#333333" stroke-width="4" x1="240.921" y1="139.917" x2="240.921" y2="155.33"/>
			<line display="inline" fill="none" stroke="#333333" stroke-width="5" x1="163.588" y1="157.33" x2="246.921" y2="157.33"/>
			<line display="inline" fill="none" stroke="#333333" stroke-width="7" x1="150.921" y1="145.623" x2="414.566" y2="145.623"/>
			<polygon display="inline" fill="#333333" points="153.671,133.621 110.254,129.746 153.671,129.746 			"/>
			<line display="inline" fill="none" stroke="#333333" stroke-width="7" x1="154.991" y1="86.762" x2="414.566" y2="86.762"/>
			<path display="inline" fill="#333333" d="M304.016,148.33c-5.934,0-10.761,4.828-10.761,10.76
				c0,5.935,4.827,10.761,10.761,10.761s10.76-4.826,10.76-10.761C314.775,153.158,309.948,148.33,304.016,148.33z"/>
			<path display="inline" fill="#333333" d="M266.882,148.33c-5.935,0-10.761,4.828-10.761,10.76
				c0,5.935,4.826,10.761,10.761,10.761c5.933,0,10.76-4.826,10.76-10.761C277.642,153.158,272.814,148.33,266.882,148.33z"/>
			<path display="inline" fill="#333333" d="M341.149,148.33c-5.934,0-10.761,4.828-10.761,10.76
				c0,5.935,4.827,10.761,10.761,10.761s10.761-4.826,10.761-10.761C351.909,153.158,347.082,148.33,341.149,148.33z"/>
		</g>
	</g>
	<g id="DRAW_BAR_COMBINATION">
		<g id="Rigid_chassis" display="inline" opacity="0.3">
			<path stroke="#000000" stroke-width="7" d="M235.072,134.062L65.12,134.087c0,0-1.378-13.046-15.076-13.046
				c-11.887,0-14.207,12.578-14.207,12.578H31.49V96.69c12.175-34.792,41.787-33.678,41.787-33.678V128h161.854L235.072,134.062z"/>
			<circle stroke="#000000" cx="50.455" cy="135.256" r="10.304"/>
			<circle stroke="#000000" cx="165.728" cy="135.256" r="10.304"/>
			<circle stroke="#000000" cx="189.502" cy="135.256" r="10.304"/>
		</g>
		<rect x="82.915" y="51.604" display="inline" fill="none" stroke="#333333" stroke-width="7" width="152.572" height="69.895"/>
		<rect x="259.353" y="51.604" display="inline" fill="none" stroke="#333333" stroke-width="7" width="152.571" height="69.895"/>
		<circle display="inline" fill="#333333" cx="320.732" cy="135.256" r="10.305"/>
		<circle display="inline" fill="#333333" cx="353.504" cy="135.256" r="10.305"/>
		<polyline display="inline" fill="none" stroke="#333333" stroke-width="7" points="226.926,130.817 274.922,130.817 
			282.691,123.048 263.183,123.048 255.931,130.474 		"/>
		<g id="CHASSIS_INST" display="inline">
			<line display="none" fill="none" stroke="#333333" stroke-width="7" x1="255.217" y1="122.535" x2="415.041" y2="122.535"/>
			<line fill="none" stroke="#333333" stroke-width="7" x1="79.289" y1="122.535" x2="239.112" y2="122.535"/>
		</g>
	</g>
	<g id="BOX_RIGID">
		<g id="Rigid_chassis_1_" display="inline" opacity="0.3">
			<path stroke="#000000" stroke-width="7" d="M367.638,147.753l-263.754,0.034c0,0-1.786-16.909-19.54-16.909
				c-15.407,0-18.414,16.303-18.414,16.303h-5.634V99.317c15.78-45.095,54.161-43.65,54.161-43.65v84.229h253.181V147.753z"/>
			<circle stroke="#000000" cx="85.021" cy="148.84" r="15.022"/>
			<circle stroke="#000000" cx="289.678" cy="148.84" r="15.022"/>
		</g>
		<rect x="123.821" y="38.986" display="inline" fill="none" stroke="#333333" stroke-width="7" width="243.78" height="95.131"/>
	</g>
	<g id="TRAILER" display="inline">
		<g id="BODY_-_FLAT_ROOF">
			<g id="WEDGE_DOUBLE_DECK" display="none">
				<g id="side_dd_WDG_1_" display="inline">
					<path fill="#333333" d="M407.624,38.531l-0.16,98.322l-371.409-17.97V38.531H407.624 M414.636,31.531H29.055v94.023
						l385.397,18.646L414.636,31.531L414.636,31.531z"/>
				</g>
				<line display="inline" fill="none" stroke="#333333" stroke-width="7" x1="75.172" y1="122.554" x2="75.172" y2="131.683"/>
				<line display="inline" fill="none" stroke="#333333" stroke-width="7" x1="154.991" y1="153.237" x2="154.991" y2="156.662"/>
				<line display="inline" fill="none" stroke="#333333" stroke-width="5" x1="154.991" y1="138.007" x2="154.991" y2="153.95"/>
				<line display="inline" fill="none" stroke="#333333" stroke-width="5" x1="409.588" y1="154.8" x2="409.588" y2="159.089"/>
				<line display="inline" fill="none" stroke="#333333" stroke-width="5" x1="406.588" y1="140.199" x2="406.588" y2="159.069"/>
				<line display="inline" fill="none" stroke="#333333" stroke-width="4" x1="174.47" y1="138.537" x2="174.47" y2="155.33"/>
				<line display="inline" fill="none" stroke="#333333" stroke-width="4" x1="164.554" y1="145.112" x2="164.554" y2="159.819"/>
				<line display="inline" fill="none" stroke="#333333" stroke-width="4" x1="238.921" y1="139.917" x2="238.921" y2="155.33"/>
				<line display="inline" fill="none" stroke="#333333" stroke-width="5" x1="163.588" y1="157.33" x2="246.921" y2="157.33"/>
				<line display="inline" fill="none" stroke="#333333" stroke-width="5" x1="163.588" y1="147.623" x2="246.921" y2="147.623"/>
				<line display="inline" fill="none" stroke="#333333" stroke-width="7" x1="153.054" y1="134.944" x2="414.566" y2="147.199"/>
				<polygon display="inline" fill="#333333" points="153.721,138.537 110.326,129.485 153.721,131.546 				"/>
				<line display="inline" fill="none" stroke="#333333" stroke-width="7" x1="31.491" y1="84.791" x2="411.866" y2="91.762"/>
				<path display="inline" fill="#333333" d="M304.016,143.981c-8.331,0-15.109,6.779-15.109,15.107
					c0,8.331,6.778,15.109,15.109,15.109c8.33,0,15.108-6.778,15.108-15.109C319.124,150.76,312.346,143.981,304.016,143.981z"/>
				<path display="inline" fill="#333333" d="M266.882,143.981c-8.331,0-15.109,6.779-15.109,15.107
					c0,8.331,6.778,15.109,15.109,15.109c8.33,0,15.107-6.778,15.107-15.109C281.99,150.76,275.212,143.981,266.882,143.981z"/>
				<path display="inline" fill="#333333" d="M341.149,144.065c-8.284,0-15.023,6.742-15.023,15.023
					c0,8.284,6.739,15.023,15.023,15.023c8.283,0,15.023-6.739,15.023-15.023C356.173,150.808,349.433,144.065,341.149,144.065z"/>
			</g>
			<g id="FIXED_DOUBLE_DECK_-_FLAT_ROOF" display="none">
				<line display="inline" fill="none" stroke="#333333" stroke-width="7" x1="75.172" y1="125.554" x2="75.172" y2="134.683"/>
				<line display="inline" fill="none" stroke="#333333" stroke-width="7" x1="154.991" y1="159.612" x2="154.991" y2="163.036"/>
				<line display="inline" fill="none" stroke="#333333" stroke-width="5" x1="154.991" y1="144.199" x2="154.991" y2="159.612"/>
				<line display="inline" fill="none" stroke="#333333" stroke-width="5" x1="409.588" y1="152.8" x2="409.588" y2="157.089"/>
				<line display="inline" fill="none" stroke="#333333" stroke-width="5" x1="406.588" y1="138.199" x2="406.588" y2="157.069"/>
				<line display="inline" fill="none" stroke="#333333" stroke-width="4" x1="169.921" y1="139.917" x2="169.921" y2="155.33"/>
				<line display="inline" fill="none" stroke="#333333" stroke-width="4" x1="240.921" y1="139.917" x2="240.921" y2="155.33"/>
				<line display="inline" fill="none" stroke="#333333" stroke-width="5" x1="163.588" y1="157.33" x2="246.921" y2="157.33"/>
				<line display="inline" fill="none" stroke="#333333" stroke-width="7" x1="150.921" y1="145.623" x2="414.566" y2="145.623"/>
				<polygon display="inline" fill="#333333" points="153.671,133.621 110.254,129.746 153.671,129.746 				"/>
				<g id="side_dd_stp_ecoS_3_" display="inline">
					<path fill="#333333" d="M407.566,38.531v96.941l-249.559-0.005v-5.168v-7h-7H36.055V38.531H407.566 M414.566,31.531H29.055
						v98.768h121.953v12.168l263.559,0.005L414.566,31.531L414.566,31.531z"/>
				</g>
				<line display="inline" fill="none" stroke="#333333" stroke-width="7" x1="154.991" y1="86.762" x2="414.566" y2="86.762"/>
				<g id="WHEELS_1_" display="inline">
					<path fill="#333333" d="M304.016,148.33c-5.934,0-10.761,4.828-10.761,10.76c0,5.935,4.827,10.761,10.761,10.761
						s10.76-4.826,10.76-10.761C314.775,153.158,309.948,148.33,304.016,148.33z"/>
					<path fill="#333333" d="M266.882,148.33c-5.935,0-10.761,4.828-10.761,10.76c0,5.935,4.826,10.761,10.761,10.761
						c5.933,0,10.76-4.826,10.76-10.761C277.642,153.158,272.814,148.33,266.882,148.33z"/>
					<path fill="#333333" d="M341.149,148.33c-5.934,0-10.761,4.828-10.761,10.76c0,5.935,4.827,10.761,10.761,10.761
						s10.761-4.826,10.761-10.761C351.909,153.158,347.082,148.33,341.149,148.33z"/>
				</g>
			</g>
			<g id="LONGER_SEMI-TRAILER_-_FLAT_ROOF" display="none">
				<line display="inline" fill="none" stroke="#333333" stroke-width="7" x1="46.117" y1="125.554" x2="46.117" y2="134.683"/>
				<line display="inline" fill="none" stroke="#333333" stroke-width="7" x1="125.936" y1="159.612" x2="125.936" y2="163.036"/>
				<line display="inline" fill="none" stroke="#333333" stroke-width="5" x1="125.936" y1="144.199" x2="125.936" y2="159.612"/>
				<line display="inline" fill="none" stroke="#333333" stroke-width="5" x1="438.865" y1="152.8" x2="438.865" y2="157.089"/>
				<line display="inline" fill="none" stroke="#333333" stroke-width="5" x1="435.865" y1="138.199" x2="435.865" y2="157.069"/>
				<line display="inline" fill="none" stroke="#333333" stroke-width="4" x1="140.866" y1="139.917" x2="140.866" y2="155.33"/>
				<line display="inline" fill="none" stroke="#333333" stroke-width="4" x1="230.866" y1="139.917" x2="230.866" y2="155.33"/>
				<line display="inline" fill="none" stroke="#333333" stroke-width="5" x1="134.533" y1="157.33" x2="236.2" y2="157.33"/>
				<line display="inline" fill="none" stroke="#333333" stroke-width="7" x1="121.866" y1="145.623" x2="443.474" y2="145.623"/>
				<polygon display="inline" fill="#333333" points="124.616,133.621 81.2,129.746 124.616,129.746 				"/>
				<g id="side_dd_stp_ecoS_1_" display="inline">
					<path fill="#333333" d="M436.621,38.531v96.941l-307.668-0.005v-5.168v-7h-7H7V38.531H436.621 M443.621,31.531H0v98.768
						h121.953v12.168l321.668,0.005V31.531L443.621,31.531z"/>
				</g>
				<g id="WHEELS" display="inline">
					<path fill="#333333" d="M350.511,148.33c-5.938,0-10.763,4.828-10.763,10.76c0,5.935,4.825,10.761,10.763,10.761
						c5.932,0,10.758-4.826,10.758-10.761C361.269,153.158,356.442,148.33,350.511,148.33z"/>
					<path fill="#333333" d="M291.535,148.33c-5.936,0-10.761,4.828-10.761,10.76c0,5.935,4.825,10.761,10.761,10.761
						c5.935,0,10.76-4.826,10.76-10.761C302.295,153.158,297.47,148.33,291.535,148.33z"/>
					<path fill="#333333" d="M254.328,148.33c-5.935,0-10.762,4.828-10.762,10.76c0,5.935,4.827,10.761,10.762,10.761
						c5.933,0,10.76-4.826,10.76-10.761C265.088,153.158,260.261,148.33,254.328,148.33z"/>
				</g>
			</g>
			<g id="RATCHET_DECK_-_FLAT_ROOF" display="none">
				<line display="inline" fill="none" stroke="#333333" stroke-width="7" x1="75.172" y1="125.554" x2="75.172" y2="134.683"/>
				<line display="inline" fill="none" stroke="#333333" stroke-width="7" x1="154.991" y1="159.612" x2="154.991" y2="163.036"/>
				<line display="inline" fill="none" stroke="#333333" stroke-width="5" x1="154.991" y1="144.199" x2="154.991" y2="159.612"/>
				<line display="inline" fill="none" stroke="#333333" stroke-width="5" x1="409.588" y1="152.8" x2="409.588" y2="157.089"/>
				<line display="inline" fill="none" stroke="#333333" stroke-width="5" x1="406.588" y1="138.199" x2="406.588" y2="157.069"/>
				<line display="inline" fill="none" stroke="#333333" stroke-width="4" x1="169.921" y1="139.917" x2="169.921" y2="155.33"/>
				<line display="inline" fill="none" stroke="#333333" stroke-width="4" x1="240.921" y1="139.917" x2="240.921" y2="155.33"/>
				<line display="inline" fill="none" stroke="#333333" stroke-width="5" x1="163.588" y1="157.33" x2="246.921" y2="157.33"/>
				<line display="inline" fill="none" stroke="#333333" stroke-width="7" x1="150.921" y1="145.623" x2="414.566" y2="145.623"/>
				<polygon display="inline" fill="#333333" points="153.671,133.621 110.254,129.746 153.671,129.746 				"/>
				<g id="side_dd_stp_ecoS_4_" display="inline">
					<path fill="#333333" d="M407.566,38.531v96.941l-249.559-0.005v-5.168v-7h-7H36.055V38.531H407.566 M414.566,31.531H29.055
						v98.768h121.953v12.168l263.559,0.005L414.566,31.531L414.566,31.531z"/>
				</g>
				<line display="inline" fill="none" stroke="#333333" stroke-width="7" x1="286.368" y1="75.762" x2="399.755" y2="75.762"/>
				<path display="inline" fill="#333333" d="M304.016,148.33c-5.934,0-10.761,4.828-10.761,10.76
					c0,5.935,4.827,10.761,10.761,10.761s10.76-4.826,10.76-10.761C314.775,153.158,309.948,148.33,304.016,148.33z"/>
				<path display="inline" fill="#333333" d="M266.882,148.33c-5.935,0-10.761,4.828-10.761,10.76
					c0,5.935,4.826,10.761,10.761,10.761c5.933,0,10.76-4.826,10.76-10.761C277.642,153.158,272.814,148.33,266.882,148.33z"/>
				<path display="inline" fill="#333333" d="M341.149,148.33c-5.934,0-10.761,4.828-10.761,10.76
					c0,5.935,4.827,10.761,10.761,10.761s10.761-4.826,10.761-10.761C351.909,153.158,347.082,148.33,341.149,148.33z"/>
				<polygon display="inline" fill="#333333" points="357.389,86.614 343.061,110.201 328.734,86.614 				"/>
				<polygon display="inline" fill="#333333" points="328.734,64.909 343.063,41.323 357.389,64.909 				"/>
				<line display="inline" fill="none" stroke="#333333" stroke-width="7" x1="165.117" y1="98.738" x2="278.503" y2="98.738"/>
				<polygon display="inline" fill="#333333" points="236.138,109.59 221.811,133.177 207.484,109.59 				"/>
				<polygon display="inline" fill="#333333" points="207.484,87.885 221.813,64.299 236.138,87.885 				"/>
				<line display="inline" fill="none" stroke="#333333" stroke-width="7" x1="43.645" y1="80.945" x2="157.031" y2="80.945"/>
				<polygon display="inline" fill="#333333" points="114.665,91.797 100.338,115.384 86.011,91.797 				"/>
				<polygon display="inline" fill="#333333" points="86.011,70.092 100.34,46.506 114.665,70.092 				"/>
			</g>
			<g id="LIFTING_DECK_-_FLAT_ROOF" display="none">
				<line display="inline" fill="none" stroke="#333333" stroke-width="7" x1="75.172" y1="125.554" x2="75.172" y2="134.683"/>
				<line display="inline" fill="none" stroke="#333333" stroke-width="7" x1="154.991" y1="159.612" x2="154.991" y2="163.036"/>
				<line display="inline" fill="none" stroke="#333333" stroke-width="5" x1="154.991" y1="144.199" x2="154.991" y2="159.612"/>
				<line display="inline" fill="none" stroke="#333333" stroke-width="5" x1="409.588" y1="152.8" x2="409.588" y2="157.089"/>
				<line display="inline" fill="none" stroke="#333333" stroke-width="5" x1="406.588" y1="138.199" x2="406.588" y2="157.069"/>
				<line display="inline" fill="none" stroke="#333333" stroke-width="4" x1="169.921" y1="139.917" x2="169.921" y2="155.33"/>
				<line display="inline" fill="none" stroke="#333333" stroke-width="4" x1="240.921" y1="139.917" x2="240.921" y2="155.33"/>
				<line display="inline" fill="none" stroke="#333333" stroke-width="5" x1="163.588" y1="157.33" x2="246.921" y2="157.33"/>
				<line display="inline" fill="none" stroke="#333333" stroke-width="7" x1="150.921" y1="145.623" x2="414.566" y2="145.623"/>
				<polygon display="inline" fill="#333333" points="153.671,133.621 110.254,129.746 153.671,129.746 				"/>
				<g id="side_dd_stp_ecoS_2_" display="inline">
					<path fill="#333333" d="M407.566,38.531v96.941l-249.559-0.005v-5.168v-7h-7H36.055V38.531H407.566 M414.566,31.531H29.055
						v98.768h121.953v12.168l263.559,0.005L414.566,31.531L414.566,31.531z"/>
				</g>
				<line display="inline" fill="none" stroke="#333333" stroke-width="7" x1="154.991" y1="86.762" x2="414.566" y2="86.762"/>
				<path display="inline" fill="#333333" d="M304.016,148.33c-5.934,0-10.761,4.828-10.761,10.76
					c0,5.935,4.827,10.761,10.761,10.761s10.76-4.826,10.76-10.761C314.775,153.158,309.948,148.33,304.016,148.33z"/>
				<path display="inline" fill="#333333" d="M266.882,148.33c-5.935,0-10.761,4.828-10.761,10.76
					c0,5.935,4.826,10.761,10.761,10.761c5.933,0,10.76-4.826,10.76-10.761C277.642,153.158,272.814,148.33,266.882,148.33z"/>
				<path display="inline" fill="#333333" d="M341.149,148.33c-5.934,0-10.761,4.828-10.761,10.76
					c0,5.935,4.827,10.761,10.761,10.761s10.761-4.826,10.761-10.761C351.909,153.158,347.082,148.33,341.149,148.33z"/>
				<polygon display="inline" fill="#333333" points="307.582,97.614 293.254,121.201 278.928,97.614 				"/>
				<polygon display="inline" fill="#333333" points="278.928,75.909 293.256,52.323 307.582,75.909 				"/>
			</g>
			<g id="TEARDROP" display="none">
				<path display="inline" fill="#333333" d="M341.149,128.412c-8.284,0-15.023,6.739-15.023,15.022s6.739,15.023,15.023,15.023
					c8.283,0,15.023-6.74,15.023-15.023S349.433,128.412,341.149,128.412z"/>
				<path display="inline" fill="#333333" d="M304.016,128.326c-8.331,0-15.109,6.778-15.109,15.108s6.778,15.109,15.109,15.109
					c8.33,0,15.108-6.779,15.108-15.109S312.346,128.326,304.016,128.326z"/>
				<path display="inline" fill="#333333" d="M266.882,128.326c-8.331,0-15.109,6.778-15.109,15.108s6.778,15.109,15.109,15.109
					c8.33,0,15.107-6.779,15.107-15.109S275.212,128.326,266.882,128.326z"/>
				<line display="inline" fill="none" stroke="#333333" stroke-width="7" x1="75.172" y1="123.349" x2="75.172" y2="132.478"/>
				<line display="inline" fill="none" stroke="#333333" stroke-width="7" x1="154.991" y1="140.583" x2="154.991" y2="144.007"/>
				<line display="inline" fill="none" stroke="#333333" stroke-width="5" x1="154.991" y1="125.353" x2="154.991" y2="141.294"/>
				<line display="inline" fill="none" stroke="#333333" stroke-width="4" x1="174.47" y1="125.882" x2="174.47" y2="142.675"/>
				<line display="inline" fill="none" stroke="#333333" stroke-width="4" x1="164.554" y1="132.457" x2="164.554" y2="147.166"/>
				<line display="inline" fill="none" stroke="#333333" stroke-width="4" x1="238.921" y1="127.261" x2="238.921" y2="142.675"/>
				<line display="inline" fill="none" stroke="#333333" stroke-width="5" x1="163.588" y1="144.675" x2="246.921" y2="144.675"/>
				<line display="inline" fill="none" stroke="#333333" stroke-width="5" x1="163.588" y1="134.968" x2="246.921" y2="134.968"/>
				<line display="inline" fill="none" stroke="#333333" stroke-width="5" x1="409.588" y1="140.146" x2="409.588" y2="144.435"/>
				<line display="inline" fill="none" stroke="#333333" stroke-width="5" x1="406.588" y1="125.544" x2="406.588" y2="144.416"/>
				<line display="inline" fill="none" stroke="#333333" stroke-width="7" x1="150.921" y1="127.914" x2="414.566" y2="127.914"/>
				<polygon display="inline" fill="#333333" points="153.671,131.789 110.254,127.914 153.671,127.914 				"/>
				<g display="inline">
					<path fill="#333333" d="M164.264,47.038c0.703,0,1.4,0,2.103,0.002c81.407,0.117,163.896,6.352,241.227,13.223v60.648H36.096
						L36.082,56.59C76.706,50.25,119.793,47.038,164.264,47.038 M164.264,40.038c-45.282,0-90.693,3.268-135.183,10.585
						l0.017,77.289h385.495V53.857h-0.033c-82.031-7.349-165.056-13.698-248.184-13.817h0.09
						C165.73,40.038,165,40.038,164.264,40.038L164.264,40.038z"/>
				</g>
			</g>
			<g id="BOX_VAN_TRAILER" display="none">
				<path display="inline" fill="#333333" d="M341.149,128.412c-8.284,0-15.023,6.739-15.023,15.022s6.739,15.023,15.023,15.023
					c8.283,0,15.023-6.74,15.023-15.023S349.433,128.412,341.149,128.412z"/>
				<g id="side_sd_1_" display="inline">
					<path fill="#333333" d="M407.601,45.623v75.291H36.089V45.623H407.601 M414.601,38.623H29.089v89.291H414.6L414.601,38.623
						L414.601,38.623z"/>
				</g>
				<path display="inline" fill="#333333" d="M304.016,128.326c-8.331,0-15.109,6.778-15.109,15.108s6.778,15.109,15.109,15.109
					c8.33,0,15.108-6.779,15.108-15.109S312.346,128.326,304.016,128.326z"/>
				<path display="inline" fill="#333333" d="M266.882,128.326c-8.331,0-15.109,6.778-15.109,15.108s6.778,15.109,15.109,15.109
					c8.33,0,15.107-6.779,15.107-15.109S275.212,128.326,266.882,128.326z"/>
				<line display="inline" fill="none" stroke="#333333" stroke-width="7" x1="75.172" y1="123.349" x2="75.172" y2="132.478"/>
				<line display="inline" fill="none" stroke="#333333" stroke-width="7" x1="154.991" y1="140.583" x2="154.991" y2="144.007"/>
				<line display="inline" fill="none" stroke="#333333" stroke-width="5" x1="154.991" y1="125.353" x2="154.991" y2="141.294"/>
				<line display="inline" fill="none" stroke="#333333" stroke-width="4" x1="174.47" y1="125.882" x2="174.47" y2="142.675"/>
				<line display="inline" fill="none" stroke="#333333" stroke-width="4" x1="164.554" y1="132.457" x2="164.554" y2="147.166"/>
				<line display="inline" fill="none" stroke="#333333" stroke-width="4" x1="238.921" y1="127.261" x2="238.921" y2="142.675"/>
				<line display="inline" fill="none" stroke="#333333" stroke-width="5" x1="163.588" y1="144.675" x2="246.921" y2="144.675"/>
				<line display="inline" fill="none" stroke="#333333" stroke-width="5" x1="163.588" y1="134.968" x2="246.921" y2="134.968"/>
				<line display="inline" fill="none" stroke="#333333" stroke-width="5" x1="409.588" y1="140.146" x2="409.588" y2="144.435"/>
				<line display="inline" fill="none" stroke="#333333" stroke-width="5" x1="406.588" y1="125.544" x2="406.588" y2="144.416"/>
				<line display="inline" fill="none" stroke="#333333" stroke-width="7" x1="150.921" y1="127.914" x2="414.566" y2="127.914"/>
				<polygon display="inline" fill="#333333" points="153.671,131.789 110.254,127.914 153.671,127.914 				"/>
			</g>
			<g id="CURTAINSIDER_TRAILER">
				<path fill="#333333" d="M341.149,128.412c-8.284,0-15.023,6.739-15.023,15.022s6.739,15.023,15.023,15.023
					c8.283,0,15.023-6.74,15.023-15.023S349.433,128.412,341.149,128.412z"/>
				<g id="side_sd_2_">
					<path fill="#333333" d="M407.601,45.623v75.291H36.089V45.623H407.601 M414.601,38.623H29.089v89.291H414.6L414.601,38.623
						L414.601,38.623z"/>
				</g>
				<path fill="#333333" d="M304.016,128.326c-8.331,0-15.109,6.778-15.109,15.108s6.778,15.109,15.109,15.109
					c8.33,0,15.108-6.779,15.108-15.109S312.346,128.326,304.016,128.326z"/>
				<path fill="#333333" d="M266.882,128.326c-8.331,0-15.109,6.778-15.109,15.108s6.778,15.109,15.109,15.109
					c8.33,0,15.107-6.779,15.107-15.109S275.212,128.326,266.882,128.326z"/>
				<line fill="none" stroke="#333333" stroke-width="7" x1="75.172" y1="123.349" x2="75.172" y2="132.478"/>
				<line fill="none" stroke="#333333" stroke-width="7" x1="154.991" y1="140.583" x2="154.991" y2="144.007"/>
				<line fill="none" stroke="#333333" stroke-width="5" x1="154.991" y1="125.353" x2="154.991" y2="141.294"/>
				<line fill="none" stroke="#333333" stroke-width="4" x1="174.47" y1="125.882" x2="174.47" y2="142.675"/>
				<line fill="none" stroke="#333333" stroke-width="4" x1="164.554" y1="132.457" x2="164.554" y2="147.166"/>
				<line fill="none" stroke="#333333" stroke-width="4" x1="238.921" y1="127.261" x2="238.921" y2="142.675"/>
				<line fill="none" stroke="#333333" stroke-width="5" x1="163.588" y1="144.675" x2="246.921" y2="144.675"/>
				<line fill="none" stroke="#333333" stroke-width="5" x1="163.588" y1="134.968" x2="246.921" y2="134.968"/>
				<line fill="none" stroke="#333333" stroke-width="5" x1="409.588" y1="140.146" x2="409.588" y2="144.435"/>
				<line fill="none" stroke="#333333" stroke-width="5" x1="406.588" y1="125.544" x2="406.588" y2="144.416"/>
				<line fill="none" stroke="#333333" stroke-width="7" x1="150.921" y1="127.914" x2="414.566" y2="127.914"/>
				<polygon fill="#333333" points="153.671,131.789 110.254,127.914 153.671,127.914 				"/>
				<rect x="41.102" y="112.425" fill="#333333" width="2.834" height="12.926"/>
				<rect x="58.11" y="112.425" fill="#333333" width="2.834" height="12.926"/>
				<rect x="75.118" y="112.425" fill="#333333" width="2.834" height="12.926"/>
				<rect x="92.125" y="112.425" fill="#333333" width="2.834" height="12.926"/>
				<rect x="107.716" y="112.425" fill="#333333" width="2.834" height="12.926"/>
				<rect x="124.724" y="112.425" fill="#333333" width="2.834" height="12.926"/>
				<rect x="141.732" y="112.425" fill="#333333" width="2.834" height="12.926"/>
				<rect x="158.74" y="112.425" fill="#333333" width="2.834" height="12.926"/>
				<rect x="175.039" y="112.425" fill="#333333" width="2.834" height="12.926"/>
				<rect x="190.63" y="112.425" fill="#333333" width="2.834" height="12.926"/>
				<rect x="206.22" y="112.425" fill="#333333" width="2.834" height="12.926"/>
				<rect x="222.52" y="112.425" fill="#333333" width="2.835" height="12.926"/>
				<rect x="239.527" y="112.425" fill="#333333" width="2.835" height="12.926"/>
				<rect x="255.118" y="112.425" fill="#333333" width="2.834" height="12.926"/>
				<rect x="275.866" y="112.425" fill="#333333" width="2.834" height="12.926"/>
				<rect x="290.366" y="112.425" fill="#333333" width="2.834" height="12.926"/>
				<rect x="313.283" y="112.425" fill="#333333" width="2.834" height="12.926"/>
				<rect x="327.87" y="112.425" fill="#333333" width="2.834" height="12.926"/>
				<rect x="351.496" y="112.425" fill="#333333" width="2.834" height="12.926"/>
				<rect x="367.087" y="112.425" fill="#333333" width="2.834" height="12.926"/>
				<rect x="382.677" y="112.425" fill="#333333" width="2.834" height="12.926"/>
				<rect x="398.268" y="112.425" fill="#333333" width="2.834" height="12.926"/>
			</g>
		</g>
	</g>
	<g id="TEMPLATE_AREA">
	</g>
</g>
<g id="Layer_2" display="none">
	<g display="inline">
		<path fill="#333333" d="M179.032,35.972c0-13.428,10.886-24.313,24.314-24.313c13.427,0,24.313,10.885,24.313,24.313
			c0,13.427-10.886,24.312-24.313,24.312C189.918,60.285,179.032,49.399,179.032,35.972z M215.031,76.849
			c0.243-5.294,2.066-10.195,4.998-14.245c-2.058-0.432-4.185-0.66-6.367-0.66h-20.629c-2.176,0-4.3,0.227-6.347,0.652
			c3.12,4.328,4.986,9.614,5.017,15.335c3.793-2.086,8.145-3.274,12.767-3.274C208.221,74.658,211.791,75.439,215.031,76.849z
			 M219.147,79.031c7.063,4.429,12.015,11.919,12.921,20.618c2.877,1.346,6.075,2.121,9.463,2.121c12.372,0,22.4-10.029,22.4-22.401
			c0-12.374-10.028-22.401-22.4-22.401C229.272,56.969,219.333,66.817,219.147,79.031z M204.471,124.897
			c12.37,0,22.399-10.031,22.399-22.4c0-12.37-10.029-22.4-22.399-22.4c-12.371,0-22.404,10.03-22.404,22.4
			C182.067,114.866,192.1,124.897,204.471,124.897z M213.973,126.423h-19.006c-15.814,0-28.683,12.867-28.683,28.684v23.246
			l0.06,0.364l1.6,0.498c15.093,4.714,28.205,6.29,38.999,6.29c21.077,0,33.298-6.01,34.051-6.395l1.497-0.758h0.159v-23.247
			C242.652,139.291,229.789,126.423,213.973,126.423z M251.037,103.299h-18.863c-0.205,7.547-3.426,14.344-8.52,19.229
			c14.057,4.18,24.343,17.215,24.343,32.614v7.163c18.62-0.687,29.354-5.961,30.061-6.316l1.497-0.761h0.158v-23.251
			C279.715,116.164,266.848,103.299,251.037,103.299z M256.079,56.491c7.063,4.429,12.015,11.92,12.918,20.619
			c2.878,1.345,6.075,2.119,9.463,2.119c12.375,0,22.402-10.027,22.402-22.397c0-12.374-10.028-22.4-22.402-22.4
			C266.203,34.43,256.266,44.281,256.079,56.491z M287.965,80.758h-18.859c-0.205,7.547-3.426,14.344-8.52,19.229
			c14.057,4.18,24.343,17.216,24.343,32.615v7.163c18.619-0.686,29.354-5.958,30.061-6.317l1.495-0.759h0.161v-23.253
			C316.648,93.625,303.781,80.758,287.965,80.758z M165.166,101.77c4.382,0,8.457-1.28,11.913-3.458
			c1.099-7.162,4.938-13.421,10.421-17.682c0.022-0.42,0.062-0.835,0.062-1.26c0-12.374-10.031-22.401-22.396-22.401
			c-12.375,0-22.402,10.027-22.402,22.401C142.764,91.743,152.791,101.77,165.166,101.77z M185.283,122.528
			c-5.071-4.861-8.28-11.622-8.517-19.126c-0.698-0.051-1.39-0.104-2.103-0.104H155.66c-15.816,0-28.683,12.865-28.683,28.681
			v23.249l0.059,0.361l1.602,0.499c12.105,3.786,22.914,5.525,32.3,6.069v-7.019C160.94,139.743,171.223,126.706,185.283,122.528z"
			/>
	</g>
</g>
<g id="Layer_3" display="none">
	<g display="inline">
		<g>
			<path fill="#333333" d="M167.125,73.469c0.72-0.916,1.456-1.816,2.225-2.683c0.981-1.129,2.012-2.242,3.092-3.305
				c3.877-3.877,8.164-7.198,12.826-9.963v-1.08c0-2.519-2.045-4.548-4.548-4.548h-5.055c-0.9,0-1.734,0.425-2.241,1.162
				l-7.46,10.552l-1.816-3.828l2.896-6.086c0.393-0.834-0.212-1.8-1.128-1.8h-5.792c-0.916,0-1.538,0.965-1.129,1.8l2.896,6.086
				l-1.783,3.763l-7.28-10.454c-0.507-0.736-1.358-1.194-2.258-1.194h-5.317c-2.519,0-4.548,2.045-4.548,4.548v30.249h18.438
				C161.285,81.96,163.952,77.543,167.125,73.469z"/>
			<path fill="#333333" d="M148.312,34.32c0,8.082,6.577,14.658,14.658,14.658c8.082,0,14.659-6.577,14.659-14.658
				c0-8.082-6.577-14.659-14.659-14.659C154.888,19.662,148.312,26.238,148.312,34.32z"/>
			<path fill="#333333" d="M286.52,51.891c-0.9,0-1.734,0.425-2.241,1.162l-7.46,10.552l-1.816-3.828l2.896-6.086
				c0.393-0.834-0.213-1.8-1.128-1.8h-5.792c-0.916,0-1.537,0.965-1.128,1.8l2.895,6.086l-1.782,3.763l-7.264-10.454
				c-0.508-0.736-1.358-1.194-2.258-1.194h-5.317c-2.52,0-4.548,2.045-4.548,4.548v1.162c4.598,2.732,8.835,6.037,12.662,9.865
				c1.113,1.113,2.177,2.258,3.19,3.419c0.72,0.834,1.44,1.701,2.11,2.568c3.174,4.073,5.856,8.491,7.983,13.219h18.602V56.438
				c0-2.519-2.045-4.548-4.548-4.548H286.52L286.52,51.891z"/>
			<path fill="#333333" d="M259.183,34.32c0,8.082,6.576,14.658,14.658,14.658s14.658-6.577,14.658-14.658
				c0-8.082-6.576-14.659-14.658-14.659S259.183,26.238,259.183,34.32z"/>
			<path fill="#333333" d="M293.718,162.843l-20.106-15.41c-2.634,4.286-5.775,8.245-9.374,11.844
				c-0.295,0.295-0.605,0.59-0.916,0.884l20.434,15.656c1.488,1.146,3.239,1.685,4.973,1.685c2.454,0,4.892-1.096,6.495-3.206
				C297.972,170.729,297.301,165.592,293.718,162.843z"/>
			<path fill="#333333" d="M240.679,113.076c0-2.519-2.045-4.548-4.548-4.548h-5.055c-0.899,0-1.734,0.426-2.241,1.162l-7.46,10.552
				l-1.816-3.828l2.896-6.086c0.393-0.834-0.212-1.8-1.129-1.8h-5.791c-0.917,0-1.538,0.966-1.129,1.8l2.896,6.086l-1.783,3.763
				l-7.248-10.454c-0.507-0.735-1.358-1.194-2.258-1.194h-5.317c-2.519,0-4.548,2.045-4.548,4.549v30.249h44.547v-30.25H240.679z"/>
			<path fill="#333333" d="M218.413,105.633c8.082,0,14.658-6.577,14.658-14.659c0-8.082-6.576-14.658-14.658-14.658
				s-14.658,6.576-14.658,14.658S210.332,105.633,218.413,105.633z"/>
			<path fill="#333333" d="M194.659,169.42c7.509,3.174,15.477,4.776,23.673,4.776c8.212,0,16.18-1.603,23.672-4.776
				c6.691-2.83,12.744-6.79,18.029-11.763c0.44-0.409,0.883-0.835,1.309-1.26c3.468-3.468,6.479-7.313,8.998-11.452
				c1.521-2.535,2.879-5.153,4.024-7.885c3.174-7.51,4.776-15.477,4.776-23.673s-1.603-16.18-4.776-23.673
				c-0.426-1.014-0.884-2.028-1.375-3.01c-2.944-6.037-6.854-11.518-11.664-16.328c-2.994-2.994-6.266-5.644-9.767-7.934
				c-3.027-1.98-6.217-3.681-9.571-5.104c-7.508-3.174-15.476-4.777-23.672-4.777c-8.212,0-16.18,1.603-23.673,4.777
				c-3.289,1.391-6.429,3.059-9.407,4.99c-3.566,2.307-6.888,4.99-9.931,8.033c-4.793,4.793-8.703,10.274-11.665,16.327
				c-0.474,0.981-0.949,1.996-1.374,3.01c-3.174,7.509-4.777,15.476-4.777,23.672s1.603,16.18,4.777,23.673
				c3.059,7.247,7.444,13.742,13.039,19.337C180.901,161.96,187.411,166.344,194.659,169.42z M184.254,86.688
				c0.328-0.409,0.655-0.818,0.998-1.21c0.786-0.933,1.604-1.832,2.487-2.699c8.18-8.18,19.043-12.679,30.609-12.679
				c11.567,0,22.429,4.499,30.593,12.679c0.932,0.933,1.815,1.897,2.649,2.896c0.278,0.344,0.557,0.671,0.835,1.031
				c5.972,7.591,9.194,16.883,9.194,26.683c0,11.566-4.499,22.43-12.679,30.609c-8.181,8.18-19.043,12.679-30.593,12.679
				s-22.43-4.499-30.593-12.679c-8.18-8.18-12.679-19.043-12.679-30.609C175.06,103.571,178.299,94.279,184.254,86.688z"/>
		</g>
	</g>
</g>
<g id="Layer_4">
	<g>
		<path fill="#FFFFFF" d="M215.465,141.851c-14.627,1.082-40.781,7.258-62.307,14.246V48.246
			c29.615-9.616,68.075-17.692,73.074-13.077c4.432,4.09-10.771,11.502-10.809,17.151L215.465,141.851z"/>
		<path fill="#333333" d="M149.16,161.601V45.338l2.764-0.898c21.81-7.081,52.938-14.607,67.67-14.607
			c4.673,0,7.557,0.739,9.352,2.396c1.366,1.261,2.092,2.862,2.098,4.63c0.012,3.786-3.272,6.855-6.75,10.105
			c-1.604,1.5-4.576,4.278-4.869,5.445l0.043,93.156l-3.707,0.273c-13.77,1.02-39.004,6.803-61.365,14.064L149.16,161.601z
			 M157.16,51.164v99.472c19.643-6.064,40.698-10.881,54.303-12.422l-0.039-85.893c0.029-4.305,3.779-7.811,7.406-11.201
			c0.942-0.881,2.293-2.143,3.227-3.179c-0.608-0.063-1.413-0.109-2.463-0.109C207.834,37.833,181.397,43.503,157.16,51.164z"/>
	</g>
	<g>
		<path fill="#FFFFFF" d="M215.869,54.397l-0.404,105.43l0,0c-0.006,0.73,0.195,1.764,0.77,2.426
			c5,5.768,74.229-13.463,74.229-13.463V40.938C290.461,40.938,220.869,60.167,215.869,54.397"/>
		<path fill="#333333" d="M221.17,167.331c-4.084,0-6.465-0.734-7.959-2.459c-1.603-1.85-1.754-4.172-1.746-5.086l0.445-107.064
			l6.579-1.409c0.347,0.069,1.056,0.165,2.337,0.165c16.287,0,68.049-14.251,68.569-14.396l5.065-1.4v116.147l-2.931,0.813
			C289.373,153.243,238.457,167.331,221.17,167.331z M219.467,159.257c0.397,0.041,0.951,0.074,1.703,0.074
			c13.955,0,54.092-10.572,65.291-13.598v-99.57c-13.74,3.666-51.267,13.314-65.635,13.314c-0.337,0-0.662-0.005-0.977-0.015
			L219.467,159.257z"/>
	</g>
	<g>
		<rect x="275.523" y="136.753" fill="#333333" width="8" height="15.104"/>
	</g>
	<g>
		<rect x="257.685" y="140.714" fill="#333333" width="8" height="15.104"/>
	</g>
	<g>
		<rect x="240.362" y="144.675" fill="#333333" width="8" height="15.105"/>
	</g>
	<g>
		<rect x="221.791" y="147.646" fill="#333333" width="8" height="15.105"/>
	</g>
	<g>
		<rect x="201.541" y="127.839" fill="#333333" width="8" height="15.104"/>
	</g>
	<g>
		<rect x="182.402" y="130.808" fill="#333333" width="8" height="15.105"/>
	</g>
	<g>
		<rect x="163.346" y="136.753" fill="#333333" width="8" height="15.104"/>
	</g>
</g>
</svg>
